<?xml version="1.0" encoding="utf-8"?>
<!-- Generator: Adobe Illustrator 16.0.0, SVG Export Plug-In . SVG Version: 6.00 Build 0)  -->
<!DOCTYPE svg PUBLIC "-//W3C//DTD SVG 1.1//EN" "http://www.w3.org/Graphics/SVG/1.1/DTD/svg11.dtd">
<svg version="1.1" id="Layer_1" xmlns="http://www.w3.org/2000/svg" xmlns:xlink="http://www.w3.org/1999/xlink" x="0px" y="0px"
	 width="220.863px" height="194.964px" viewBox="0 0 220.863 194.964" enable-background="new 0 0 220.863 194.964"
	 xml:space="preserve">
<path fill="#2D2424" d="M144.755,49.88c-3.98-2.709-8.168-4.879-12.478-6.527v37.322c0,7-6.762,12.674-15.101,12.674h-11.943
	c-8.34,0-15.102-5.674-15.102-12.674V42.958C78.51,47.13,68.049,54.88,60.566,65.871c-18.833,27.664-11.674,65.359,15.99,84.193
	c27.665,18.834,65.357,11.676,84.189-15.992C179.579,106.408,172.42,68.714,144.755,49.88z"/>
<circle fill="#FEF9E6" cx="110.656" cy="99.972" r="55.97"/>
<path fill="#CEDE65" d="M54.75,99.97c0-30.877,25.031-55.908,55.91-55.908c30.872,0,55.905,25.033,55.905,55.91
	c0,30.878-25.033,55.91-55.905,55.91C79.781,155.882,54.75,130.849,54.75,99.97z"/>
<path fill="#FEF9E6" d="M73.464,99.548c0-20.543,16.652-37.195,37.195-37.195c20.537,0,37.188,16.654,37.188,37.195
	c0,20.541-16.65,37.193-37.188,37.193C90.117,136.741,73.464,120.089,73.464,99.548z"/>
<path fill="#2D2424" d="M131.431,28.457c0,0,0.371-0.932,0.004-1.395c-0.366-0.467-1.128-0.504-1.128-0.504l-2.442-0.561
	l-1.57,0.896l-0.532,2.379l1.042,1.48l1.305,0.291l-1.594,7.135l-5.109-1.143l-1.738,7.777l5.111,1.141l1.143,0.238
	c0,0,0.536,0.223,1.105-0.002c0.566-0.225,0.637-0.891,0.637-0.891L131.431,28.457z"/>
<path fill="#2D2424" d="M90.941,28.457c0,0-0.372-0.932-0.007-1.395c0.367-0.467,1.129-0.504,1.129-0.504l2.442-0.561l1.572,0.896
	l0.53,2.379l-1.04,1.48l-1.307,0.291l1.594,7.135l5.109-1.143l1.737,7.777l-5.11,1.141l-1.143,0.238c0,0-0.537,0.223-1.104-0.002
	S94.706,45.3,94.706,45.3L90.941,28.457z"/>
<polygon fill="#2D2424" points="114.019,33.996 108.667,33.996 106.012,36.412 106.012,44.4 116.569,44.4 116.569,36.318 "/>
<g>
	<path fill="#2D2424" d="M79.39,74.222l-0.89,0.92h-3.608v3.885h3.374l-0.011,2.045h-3.363v6.135h-2.557V72.892h7.055V74.222z"/>
	<path fill="#2D2424" d="M90.419,72.892c0.156,0.008,0.303,0.041,0.439,0.102c0.115,0.055,0.233,0.143,0.353,0.262
		s0.21,0.291,0.271,0.516l2.127,12.596l-0.542,0.84h-1.738l-0.613-3.068h-3.374l0.409-2.045h2.812l-0.931-5.469h-0.623
		l-2.086,10.582h-2.443l2.597-13.477c0.055-0.197,0.138-0.352,0.25-0.465c0.113-0.113,0.227-0.195,0.343-0.25
		c0.13-0.068,0.266-0.109,0.409-0.123H90.419z"/>
	<path fill="#2D2424" d="M104.269,72.892c2.045,0,3.068,1.021,3.068,3.066v2.658c0,1.91-0.645,2.932-1.933,3.068l1.913,4.816
		l-0.501,0.705h-1.728l-2.25-5.521h-1.124V79.64h1.942c0.682,0,1.022-0.34,1.022-1.023v-2.453c0-0.682-0.341-1.021-1.022-1.021
		h-1.942v12.064h-2.557l0.103-14.314H104.269z"/>
	<path fill="#2D2424" d="M122.424,87.093l-0.654-0.604v-7.463l-1.942,7.77h-2.147l-1.84-7.77v7.361l-0.553,0.705l-2.004,0.01V72.892
		h2.352c0.157,0,0.304,0.031,0.439,0.092c0.116,0.055,0.232,0.145,0.348,0.271c0.116,0.125,0.208,0.314,0.276,0.566l2.106,8.17
		l2.096-8.088c0.062-0.23,0.151-0.416,0.271-0.551c0.119-0.137,0.237-0.24,0.354-0.307c0.137-0.076,0.286-0.127,0.449-0.154h2.352
		v14.211L122.424,87.093z"/>
	<path fill="#2D2424" d="M136.816,74.324l-0.849,0.818h-3.65v3.885h3.579v2.045h-3.579v3.885h3.559l0.94,0.818v1.432h-7.055V72.892
		h7.055V74.324z"/>
	<path fill="#2D2424" d="M147.466,72.892c2.045,0,3.068,1.021,3.068,3.066v2.658c0,1.91-0.645,2.932-1.934,3.068l1.912,4.816
		l-0.5,0.705h-1.729l-2.249-5.521h-1.125V79.64h1.942c0.682,0,1.023-0.34,1.023-1.023v-2.453c0-0.682-0.342-1.021-1.023-1.021
		h-1.942v12.064h-2.556l0.102-14.314H147.466z"/>
</g>
<g>
	<path fill="#2D2424" d="M80.698,92.492c4.771,0,7.157,2.387,7.157,7.158v19.083c0,4.771-2.386,7.158-7.157,7.158h-4.771
		c-4.771,0-7.157-2.387-7.157-7.158V99.65c0-4.771,2.386-7.158,7.157-7.158H80.698z M80.102,120.644l2.027-2.029V99.769
		l-2.027-2.027h-3.579l-2.027,2.027v18.845l2.027,2.029H80.102z"/>
	<path fill="#2D2424" d="M97.861,92.564l0.238,27.601l10.736,0.479l-0.238,5.248H92.135v-33.4L97.861,92.564z"/>
	<path fill="#2D2424" d="M126.595,92.492c0.365,0.018,0.707,0.096,1.025,0.238c0.27,0.129,0.545,0.332,0.822,0.609
		c0.279,0.277,0.49,0.68,0.633,1.205l4.962,29.39l-1.265,1.957h-4.055l-1.432-7.158h-7.873l0.954-4.771h6.562l-2.172-12.761h-1.455
		l-4.867,24.691h-5.701l6.06-31.443c0.127-0.461,0.322-0.824,0.584-1.086c0.263-0.262,0.528-0.457,0.8-0.584
		c0.302-0.158,0.62-0.254,0.954-0.287H126.595z"/>
	<path fill="#2D2424" d="M155.04,95.593l-2.076,2.148h-8.421v9.064h7.872l-0.023,4.771h-7.849v14.314h-5.964v-33.4h16.461V95.593z"
		/>
</g>
</svg>
