<?xml version="1.0" encoding="utf-8"?>
<!-- Generator: Adobe Illustrator 16.0.0, SVG Export Plug-In . SVG Version: 6.00 Build 0)  -->
<!DOCTYPE svg PUBLIC "-//W3C//DTD SVG 1.1//EN" "http://www.w3.org/Graphics/SVG/1.1/DTD/svg11.dtd">
<svg version="1.1" id="Layer_1" xmlns="http://www.w3.org/2000/svg" xmlns:xlink="http://www.w3.org/1999/xlink" x="0px" y="0px"
	 width="92px" height="95.75px" viewBox="0 0 92 95.75" enable-background="new 0 0 92 95.75" xml:space="preserve">
<g>
	<polygon fill="#E58B4A" points="231.303,162.503 225.041,168.929 222.453,175.546 216.311,169.796 209.42,165.062 213.402,161.534 
		218.709,153.192 	"/>
	<g>
		<path fill="#E58B4A" d="M205.537,198.905c0,0,0.428,11.029,2.219,11.605c1.789,0.572,8.451-9.822,4.666-17.619"/>
		<path fill="#2D2322" d="M207.92,211.751c-0.18,0-0.359-0.029-0.533-0.084c-0.645-0.209-2.6-0.838-3.061-12.715
			c-0.027-0.668,0.494-1.232,1.164-1.258c0.66-0.053,1.234,0.496,1.26,1.164c0.156,4.033,0.723,8.756,1.367,10.244
			c0.666-0.584,1.918-2.178,2.957-4.768c0.939-2.34,2.221-6.869,0.258-10.914c-0.293-0.602-0.041-1.328,0.561-1.619
			c0.602-0.295,1.328-0.043,1.621,0.561c3.031,6.244-0.029,14.313-3.051,17.799C209.539,211.226,208.701,211.751,207.92,211.751z"/>
	</g>
	<g>
		<path fill="#E58B4A" d="M190.705,189.55c0,0-10.221,4.166-11.482,2.773c-1.26-1.393,5.453-11.754,14.115-11.527"/>
		<path fill="#2D2322" d="M180.283,193.794c-1.365,0-1.756-0.432-1.959-0.656c-0.658-0.727-0.625-1.848,0.1-3.426
			c1.898-4.131,7.834-10.133,14.645-10.133c0.1,0,0.201,0.002,0.301,0.004c0.67,0.018,1.199,0.576,1.182,1.244
			c-0.018,0.672-0.541,1.188-1.244,1.182c-4.492-0.139-8.086,2.918-9.828,4.738c-1.932,2.018-2.865,3.818-3.121,4.664
			c1.621-0.025,6.154-1.461,9.891-2.984c0.617-0.254,1.328,0.045,1.58,0.666c0.254,0.619-0.045,1.328-0.664,1.58
			C185.1,193.146,181.957,193.794,180.283,193.794z"/>
	</g>
	<g>
		<path fill="#FAE2B2" d="M196.229,196.962c0,0,7.697,5.77,13.27,2.021c5.66-3.811,6.893-7.563,7.955-9.371s2.566-4.104,3.209-5.428
			s2.432-5.266,1.643-7.885c-0.791-2.619-1.813-3.49-5.957-6.551"/>
		<path fill="#2D2322" d="M205.16,201.47c-4.867,0-9.404-3.346-9.66-3.537c-0.535-0.4-0.645-1.16-0.242-1.695
			c0.4-0.535,1.158-0.646,1.697-0.246c0.07,0.053,7.082,5.201,11.865,1.986c4.502-3.031,6.016-5.971,7.018-7.918
			c0.207-0.4,0.391-0.756,0.57-1.063c0.375-0.637,0.803-1.334,1.23-2.029c0.758-1.232,1.539-2.504,1.932-3.313
			c1.445-2.977,2.018-5.529,1.574-7.006c-0.672-2.219-1.383-2.871-5.518-5.924c-0.539-0.398-0.652-1.158-0.254-1.697
			s1.158-0.652,1.695-0.254c4.227,3.121,5.486,4.156,6.398,7.176c0.803,2.668-0.488,6.238-1.715,8.764
			c-0.443,0.916-1.223,2.184-2.047,3.523c-0.418,0.682-0.838,1.365-1.205,1.99c-0.16,0.27-0.322,0.588-0.506,0.943
			c-1.047,2.035-2.801,5.441-7.818,8.818C208.574,201.067,206.848,201.47,205.16,201.47z"/>
	</g>
	<path fill="#2D2322" d="M216.359,192.677c-0.025,0-0.051,0-0.076-0.002c-0.145-0.008-3.566-0.24-6.199-2.328
		c-0.523-0.416-0.611-1.18-0.195-1.705c0.416-0.523,1.18-0.611,1.703-0.195c2.021,1.604,4.814,1.807,4.844,1.809
		c0.666,0.043,1.174,0.619,1.131,1.287C217.525,192.183,216.994,192.677,216.359,192.677z"/>
	<path fill="#2D2322" d="M209.662,185.229c-0.141,0-0.283-0.023-0.422-0.074c-0.627-0.232-0.947-0.928-0.719-1.555
		c0.012-0.031,0.686-2.02-0.355-2.789c-0.537-0.396-0.65-1.156-0.254-1.695l3.77-5.1c0.334-0.451,0.936-0.613,1.451-0.395
		c2.01,0.855,3.244,1.98,3.668,3.342c0.348,1.107,0.141,2.275-0.613,3.469c-0.357,0.566-1.105,0.734-1.672,0.377
		s-0.736-1.105-0.379-1.672c0.537-0.852,0.396-1.303,0.35-1.451c-0.15-0.48-0.656-0.969-1.453-1.418l-2.568,3.477
		c1.043,1.518,0.752,3.563,0.334,4.693C210.617,184.927,210.154,185.229,209.662,185.229z"/>
	<path fill="#2D2322" d="M222.488,178.571c-0.098,0-0.199-0.012-0.299-0.037c-0.65-0.166-1.043-0.824-0.877-1.475
		c0.061-0.24,1.52-5.926,3.375-8.436c1.775-2.4,6.01-6.51,6.189-6.684c0.48-0.467,1.25-0.455,1.715,0.027
		c0.467,0.482,0.455,1.25-0.027,1.715c-0.043,0.041-4.27,4.145-5.926,6.383c-1.305,1.766-2.59,6.08-2.975,7.592
		C223.523,178.206,223.029,178.571,222.488,178.571z"/>
	<g>
		<path fill="#FAE2B2" d="M216.348,169.749c-4.145-3.064-5.275-3.789-8.01-3.775c-2.736,0.01-5.98,2.879-7.059,3.883
			c-1.076,1.002-2.83,3.111-4.248,4.656s-4.645,3.828-6.627,10.354c-1.951,6.426,5.824,12.096,5.824,12.096"/>
		<path fill="#2D2322" d="M196.227,198.175c-0.248,0-0.498-0.076-0.713-0.232c-0.346-0.252-8.447-6.26-6.27-13.428
			c1.76-5.791,4.504-8.469,6.145-10.066c0.285-0.279,0.539-0.525,0.75-0.756c0.492-0.537,1.025-1.143,1.557-1.746
			c1.037-1.176,2.016-2.287,2.758-2.977c2.055-1.914,5.088-4.199,7.881-4.209c3.133,0.006,4.506,0.887,8.734,4.014
			c0.539,0.398,0.652,1.158,0.256,1.695c-0.4,0.539-1.16,0.652-1.697,0.256c-4.139-3.061-4.971-3.525-7.283-3.539
			c-1.545,0.006-3.816,1.303-6.236,3.559c-0.656,0.609-1.641,1.727-2.592,2.805c-0.543,0.617-1.088,1.234-1.59,1.783
			c-0.238,0.26-0.523,0.539-0.844,0.852c-1.568,1.529-3.939,3.84-5.518,9.035c-1.676,5.516,5.309,10.711,5.379,10.764
			c0.541,0.395,0.658,1.154,0.264,1.695C196.969,198.003,196.6,198.175,196.227,198.175z"/>
	</g>
	<path fill="#2D2322" d="M199.178,181.987c-0.236,0-0.477-0.068-0.686-0.213c-2.77-1.906-3.994-5.107-4.045-5.244
		c-0.236-0.627,0.082-1.326,0.709-1.561c0.621-0.236,1.324,0.08,1.561,0.707l0,0c0.01,0.025,1.021,2.635,3.15,4.1
		c0.551,0.379,0.691,1.135,0.311,1.686C199.943,181.804,199.564,181.987,199.178,181.987z"/>
	<g>
		<path fill="#FAE2B2" d="M204.664,180.323c0,0,2.402-1.83,4.225-0.486l3.768-5.1c-1.16-1.379-3.406-3.416-5.557-0.914"/>
		<path fill="#2D2322" d="M204.664,181.536c-0.365,0-0.727-0.164-0.965-0.477c-0.406-0.533-0.303-1.295,0.229-1.701
			c0.959-0.729,2.83-1.605,4.586-1.055l2.57-3.477c-0.662-0.631-1.277-0.971-1.779-0.973c-0.109,0.012-0.627-0.006-1.285,0.76
			c-0.436,0.506-1.201,0.564-1.711,0.129c-0.508-0.436-0.564-1.201-0.129-1.711c0.916-1.064,1.965-1.604,3.117-1.604
			c0.008,0,0.014,0,0.02,0c1.428,0.008,2.863,0.857,4.268,2.527c0.361,0.43,0.381,1.051,0.049,1.502l-3.77,5.1
			c-0.396,0.541-1.154,0.654-1.695,0.256c-1.041-0.771-2.752,0.463-2.77,0.475C205.18,181.456,204.92,181.536,204.664,181.536z"/>
	</g>
	<path fill="#2D2322" d="M207.273,167.321c-0.41,0-0.809-0.207-1.037-0.582c-0.348-0.572-0.166-1.318,0.406-1.666
		c1.332-0.813,5.078-3.305,6.385-5.07c1.654-2.24,4.334-7.484,4.361-7.537c0.305-0.598,1.033-0.836,1.631-0.529
		c0.598,0.305,0.834,1.035,0.529,1.631c-0.113,0.223-2.797,5.477-4.57,7.877c-1.857,2.512-6.863,5.572-7.076,5.701
		C207.705,167.265,207.488,167.321,207.273,167.321z"/>
	<path fill="#E58B4A" d="M192.17,191.185c0.873,1.461,2.428,3.496,4.572,5.082c2.145,1.584,4.547,2.479,6.197,2.879
		c4.346,1.059,6.611-1.77,6.611-1.77s-0.635-1.094-1.824-2.924c-1.186-1.832-5.758-5.256-5.758-5.256s-4.615-3.367-6.713-3.965
		c-2.098-0.6-3.297-0.912-3.297-0.912S189.877,187.345,192.17,191.185z"/>
</g>
<g>
	<polygon fill="#F9A766" points="60.969,54.985 67.346,54.493 73.245,51.45 75.322,47.866 73.131,45.304 69.467,42.804 64.6,41.255 
		61.045,41.267 57.188,42.341 56.564,42.876 54.9,38.46 52.39,31.897 45.934,23.358 40.563,21.698 31.584,26.349 23.658,34.253 
		21.598,38.054 21.502,43.255 27.244,49.925 34.531,54.665 39.625,56.917 36.891,63.144 37.321,69.714 39.898,75.104 42.743,76.94 
		45.84,75.487 48.613,71.729 50.095,67.022 50.5,64.138 50.551,63.36 53.391,63.788 55.865,62.243 58.934,59.522 60.618,57.931 	"/>
	<path fill="#2D2322" d="M49.309,44.456c-0.154,0-0.311-0.029-0.458-0.09l-1.931-0.789c-0.62-0.252-0.918-0.961-0.665-1.58
		c0.254-0.623,0.968-0.918,1.581-0.666l1.246,0.51l1.924-1.648c0.513-0.436,1.276-0.375,1.711,0.133
		c0.436,0.51,0.376,1.275-0.133,1.711l-2.486,2.129C49.874,44.356,49.593,44.456,49.309,44.456z"/>
	<path fill="#2D2322" d="M38.018,54.116c-0.343,0-0.683-0.143-0.923-0.424c-0.436-0.51-0.376-1.275,0.134-1.711l1.901-1.625
		l-0.44-0.691c-0.359-0.566-0.192-1.316,0.372-1.676c0.566-0.357,1.315-0.193,1.675,0.373l1.005,1.58
		c0.324,0.51,0.224,1.18-0.235,1.572l-2.701,2.311C38.576,54.021,38.296,54.116,38.018,54.116z"/>
	<g>
		<path fill="#2D2322" d="M57.474,62.386c-0.343,0-0.683-0.145-0.923-0.424c-0.436-0.51-0.375-1.275,0.134-1.711
			c3.027-2.588,2.731-5.313,2.717-5.426c-0.046-0.373,0.083-0.752,0.349-1.016s0.634-0.393,1.01-0.35
			c0.104,0.016,10.516,1.285,13.255-4.301c0.361-0.738,0.063-1.176,0.061-1.18c-0.301-0.379-6.782-8.383-16.149-4.631
			c0.53,0.51,1.116,1.188,1.672,2.066c0.833,1.316,1.244,2.625,1.447,3.617l5.106-2.021c0.623-0.244,1.327,0.059,1.574,0.682
			c0.246,0.623-0.059,1.328-0.682,1.574l-6.568,2.602c-0.375,0.148-0.802,0.1-1.136-0.131c-0.333-0.23-0.529-0.611-0.523-1.016
			c0-0.014-0.004-2.01-1.27-4.01c-1.157-1.832-2.474-2.508-2.487-2.514c-0.403-0.203-0.666-0.615-0.674-1.068
			c-0.007-0.451,0.232-0.871,0.63-1.088c12.119-6.566,20.864,4.311,20.952,4.42c0.471,0.576,1.068,2.041,0.225,3.764
			c-2.85,5.811-11.139,5.947-14.413,5.756c-0.188,1.5-0.926,3.896-3.519,6.113C58.032,62.29,57.752,62.386,57.474,62.386z"/>
		<path fill="#2D2322" d="M55.596,44.321c-0.056,0-0.112-0.004-0.168-0.012c-0.664-0.092-1.127-0.703-1.035-1.367
			c0.001-0.01,0.25-2.404-1.672-6.938c-0.421-0.994-0.708-1.748-0.948-2.379c-0.914-2.404-1.078-2.838-6.271-8.908
			c-0.799-0.934-1.811-1.434-3.092-1.525c-5.165-0.357-12.296,5.832-12.367,5.895c-0.504,0.441-1.271,0.393-1.712-0.111
			s-0.393-1.27,0.11-1.711c0.322-0.283,7.961-6.906,14.139-6.492c1.936,0.139,3.539,0.936,4.766,2.369
			c5.315,6.213,5.641,6.85,6.694,9.621c0.231,0.609,0.508,1.338,0.914,2.295c2.183,5.15,1.883,7.918,1.841,8.217
			C56.711,43.882,56.191,44.321,55.596,44.321z"/>
	</g>
	<g>
		<path fill="#2D2322" d="M42.534,78.165c-1.205,0-2.083-0.576-2.473-1.012c-0.08-0.086-9.475-10.41-1.109-21.367
			c0.275-0.361,0.727-0.543,1.18-0.457c0.447,0.082,0.813,0.406,0.944,0.842c0.002,0.004,0.47,1.406,2.1,2.84
			c1.759,1.549,3.747,1.873,3.767,1.877c0.399,0.059,0.744,0.311,0.919,0.676c0.175,0.363,0.156,0.791-0.049,1.139l-3.584,6.084
			c-0.339,0.578-1.082,0.773-1.66,0.43c-0.577-0.34-0.77-1.082-0.43-1.66l2.787-4.73c-0.953-0.355-2.187-0.967-3.353-1.994
			c-0.779-0.686-1.357-1.369-1.778-1.971c-5.156,8.674,1.745,16.318,2.06,16.66c0.056,0.051,0.439,0.371,1.187,0.135
			c5.961-1.844,6.301-12.32,6.303-12.426c0.01-0.381,0.197-0.732,0.506-0.955c0.307-0.221,0.702-0.285,1.064-0.174
			c0.101,0.031,2.745,0.742,5.77-1.85c0.512-0.436,1.275-0.375,1.711,0.133c0.436,0.51,0.376,1.275-0.133,1.711
			c-2.591,2.217-5.08,2.588-6.584,2.531c-0.32,3.26-1.736,11.434-7.919,13.348C43.322,78.108,42.912,78.165,42.534,78.165z"/>
		<path fill="#2D2322" d="M39.916,57.735c-0.007,0-0.015,0-0.021,0c-0.302-0.006-3.083-0.139-7.831-3.088
			c-0.883-0.549-1.559-0.936-2.123-1.258c-2.577-1.471-3.156-1.893-8.474-8.107c-1.227-1.434-1.766-3.141-1.602-5.074
			c0.521-6.17,8.271-12.689,8.601-12.965c0.516-0.43,1.278-0.359,1.708,0.156c0.429,0.514,0.359,1.279-0.155,1.707
			c-0.073,0.061-7.304,6.148-7.737,11.309c-0.107,1.279,0.229,2.355,1.029,3.289c5.194,6.072,5.597,6.303,7.832,7.578
			c0.586,0.336,1.287,0.736,2.202,1.305c4.181,2.598,6.583,2.723,6.606,2.725c0.664,0.025,1.189,0.582,1.171,1.246
			C41.103,57.216,40.57,57.735,39.916,57.735z"/>
	</g>
	<path fill="#2D2322" d="M29.772,43.315c-0.565,0-1.071-0.396-1.188-0.973l-1.161-5.738c-0.133-0.656,0.291-1.295,0.948-1.428
		c0.66-0.135,1.296,0.291,1.429,0.947l1.161,5.738c0.133,0.656-0.291,1.297-0.948,1.43C29.933,43.308,29.852,43.315,29.772,43.315z"
		/>
	<path fill="#2D2322" d="M42.772,32.056c-0.141,0-0.283-0.023-0.422-0.076l-5.489-2.037c-0.628-0.232-0.948-0.93-0.715-1.559
		c0.232-0.629,0.934-0.949,1.559-0.715l5.489,2.037c0.628,0.232,0.948,0.932,0.715,1.559C43.729,31.755,43.265,32.056,42.772,32.056
		z"/>
	<g>
		<path fill="#F9E0B1" d="M39.998,30.474c2.045,2.389,1.429,6.268-1.375,8.666c-2.803,2.4-6.732,2.408-8.777,0.02
			c-2.043-2.391-1.43-6.27,1.375-8.67C34.025,28.091,37.955,28.081,39.998,30.474z"/>
		<path fill="#2D2322" d="M33.937,42.159c-2.012,0-3.792-0.785-5.012-2.211c-2.475-2.895-1.798-7.551,1.507-10.381
			c1.581-1.352,3.525-2.096,5.476-2.096c2.014,0,3.794,0.787,5.014,2.215c1.223,1.428,1.723,3.314,1.406,5.307
			c-0.306,1.922-1.341,3.721-2.916,5.068C37.833,41.413,35.889,42.159,33.937,42.159z M35.907,29.897
			c-1.372,0-2.757,0.539-3.898,1.514c-2.289,1.959-2.846,5.082-1.241,6.961c0.751,0.877,1.877,1.361,3.169,1.361
			c1.373,0,2.758-0.539,3.897-1.514c1.138-0.975,1.883-2.254,2.097-3.605c0.203-1.281-0.1-2.471-0.854-3.352
			C38.325,30.382,37.2,29.897,35.907,29.897z"/>
	</g>
	<path fill="#2D2322" d="M35.477,33.253c-0.533-0.621-0.443-1.572,0.197-2.123c0.643-0.551,1.596-0.49,2.131,0.133
		c0.535,0.627,0.445,1.574-0.196,2.127C36.967,33.938,36.012,33.878,35.477,33.253z"/>
	<path fill="#2D2322" d="M30.896,37.175c-0.535-0.625-0.447-1.574,0.195-2.125c0.643-0.549,1.597-0.49,2.131,0.133
		c0.535,0.627,0.446,1.578-0.197,2.127C32.383,37.86,31.429,37.798,30.896,37.175z"/>
</g>
<g>
	<polygon fill-rule="evenodd" clip-rule="evenodd" fill="#2D2424" points="-87.773,1.31 -93.005,12.998 -84.495,13.558 
		-81.684,7.283 	"/>
	
		<rect x="-80.946" y="4.741" transform="matrix(-0.4088 0.9126 -0.9126 -0.4088 -96.2752 88.7676)" fill-rule="evenodd" clip-rule="evenodd" fill="#2D2424" width="8.111" height="16.916"/>
	
		<rect x="-79.93" y="5.025" transform="matrix(-0.4089 0.9126 -0.9126 -0.4089 -98.6089 89.1234)" fill-rule="evenodd" clip-rule="evenodd" fill="#F3D866" width="3.525" height="15.204"/>
	<polygon fill-rule="evenodd" clip-rule="evenodd" fill="#CEDE65" points="-87.336,5.101 -89.887,10.794 -85.59,11.232 
		-84.148,8.015 	"/>
	
		<rect x="-84.828" y="6.504" transform="matrix(0.915 0.4035 -0.4035 0.915 -3.797 34.4882)" fill-rule="evenodd" clip-rule="evenodd" fill="#2D2424" width="2.159" height="3.457"/>
	
		<rect x="-64.404" y="26.898" transform="matrix(0.6172 0.7868 -0.7868 0.6172 3.4063 62.9667)" fill-rule="evenodd" clip-rule="evenodd" fill="#2D2424" width="2.798" height="16.171"/>
	
		<rect x="-89.414" y="42.711" transform="matrix(0.4086 -0.9127 0.9127 0.4086 -105.9992 -45.2747)" fill-rule="evenodd" clip-rule="evenodd" fill="#2D2424" width="2.955" height="32.895"/>
	
		<rect x="-86.841" y="37.793" transform="matrix(-0.4089 0.9126 -0.9126 -0.4089 -61.1489 137.6875)" fill-rule="evenodd" clip-rule="evenodd" fill="#473936" width="23.346" height="22.492"/>
	
		<rect x="-96.981" y="43.399" transform="matrix(-0.4088 0.9126 -0.9126 -0.4088 -61.7107 152.9411)" fill-rule="evenodd" clip-rule="evenodd" fill="#2D2424" width="33.169" height="26.164"/>
	<path fill-rule="evenodd" clip-rule="evenodd" fill="#2D2424" d="M-56.818,13.486l-14.65,32.707l-12.974-3.961l15.341-34.248
		c0,0,3.379-1.266,7.178,0.438C-58.123,10.123-56.818,13.486-56.818,13.486z"/>
	<path fill-rule="evenodd" clip-rule="evenodd" fill="#F3D866" d="M-59.084,13.666l-12.754,28.477l-8.644-3.871l12.755-28.477
		c0,0,2.039-0.832,4.973,0.482C-59.822,11.591-59.084,13.666-59.084,13.666z"/>
	<path fill-rule="evenodd" clip-rule="evenodd" fill="#2D2424" d="M-80.636,34.5c0,0-4.684-2.082-2.583-6.771
		s6.868-2.795,6.868-2.795"/>
	<path fill-rule="evenodd" clip-rule="evenodd" fill="#F3D866" d="M-79.99,32.291c0,0-2.643-1.174-1.457-3.824
		c1.187-2.65,3.878-1.58,3.878-1.58"/>
	<path fill-rule="evenodd" clip-rule="evenodd" fill="#2D2424" d="M-47.795,17.292c5.52,1.799,7.6,8.875,5.322,13.816
		c-2.248,4.902-8.889,7.496-13.934,5.129c-4.855-2.273-7.607-8.762-5.021-14.105C-59.219,17.576-52.805,14.451-47.795,17.292z"/>
	<path fill-rule="evenodd" clip-rule="evenodd" fill="#586E52" d="M-44.529,30.085c-1.711,4.199-6.963,6.018-10.996,4.107
		c-3.82-1.813-5.984-6.746-3.83-11.121c1.77-3.59,6.387-5.678,10.613-3.879C-44.461,21.013-42.627,26.302-44.529,30.085z"/>
	<path fill-rule="evenodd" clip-rule="evenodd" fill="#2D2424" d="M-49.807,21.81c2.889,0.941,3.979,4.645,2.787,7.234
		c-1.178,2.57-4.656,3.926-7.297,2.688c-2.545-1.191-3.988-4.59-2.629-7.387C-55.791,21.958-52.432,20.322-49.807,21.81z"/>
	<path fill-rule="evenodd" clip-rule="evenodd" fill="#AFC386" d="M-50.654,24.009c1.32,0.426,2.271,2.52,1.416,4.121
		c-0.756,1.418-2.576,2.125-4.088,1.43c-1.523-0.697-2.158-2.564-1.465-4.168C-54.219,24.072-52.242,23.056-50.654,24.009z"/>
	
		<rect x="-113.773" y="41.213" transform="matrix(-0.4088 0.9126 -0.9126 -0.4088 -101.0957 150.8396)" fill-rule="evenodd" clip-rule="evenodd" fill="#2D2424" width="28.736" height="2.923"/>
	
		<rect x="-89.863" y="28.878" transform="matrix(-0.4089 0.9126 -0.9126 -0.4089 -91.5714 131.7703)" fill-rule="evenodd" clip-rule="evenodd" fill="#2D2424" width="2.799" height="14.699"/>
	
		<rect x="-94.509" y="46.152" transform="matrix(-0.4088 0.9126 -0.9126 -0.4088 -61.7722 153.1058)" fill-rule="evenodd" clip-rule="evenodd" fill="#F3D866" width="28.059" height="20.783"/>
	<path fill-rule="evenodd" clip-rule="evenodd" fill="#2D2424" d="M-79.042,68.463c-0.917-0.871-2.023-1.527-2.868-2.482
		c-2.188-2.479-3.575-5.332-4.079-8.611c-0.563-3.663,0.27-7.073,2.042-10.231c1.489-2.658,3.683-4.65,6.417-6.072
		c2.877-1.492,5.91-2.072,9.072-1.643c5.387,0.734,9.5,3.459,12.133,8.277c1.689,3.08,2.289,6.391,1.678,9.827
		c-0.889,4.979-3.387,8.953-7.922,11.43c-3.689,2.016-7.594,2.648-11.707,1.486c-0.034-0.008-0.09,0.063-0.137,0.096
		C-75.957,69.846-77.5,69.156-79.042,68.463z"/>
	<path fill-rule="evenodd" clip-rule="evenodd" fill="#586E52" d="M-75.753,67.355c-6.531-2.504-10.063-11.352-6.573-18.249
		c2.993-5.906,10.903-9.529,18.098-5.975c5.928,2.926,9.576,10.992,5.846,18.264C-61.344,67.172-69.402,70.553-75.753,67.355z"/>
	<path fill-rule="evenodd" clip-rule="evenodd" fill="#2D2424" d="M-62.582,58.748c-1.875,4.4-6.906,6.234-11.326,4.199
		c-4.237-1.951-6.398-6.877-3.972-11.778c1.757-3.545,6.823-6.043,11.569-3.639C-62.699,49.359-60.295,54.519-62.582,58.748z"/>
	<path fill-rule="evenodd" clip-rule="evenodd" fill="#AFC386" d="M-72.904,60.693c-2.959-1.045-4.451-5.264-2.962-8.262
		c1.381-2.781,5.085-4.348,8.173-2.914c2.932,1.357,4.5,5.127,2.961,8.366C-65.984,60.512-69.941,62.398-72.904,60.693z"/>
</g>
<g>
	<polygon fill="#F9A766" points="-69.068,138.479 -61.105,134.561 -59.25,135.896 -56.204,136.734 -54.492,137.967 -54.67,140.545 
		-51.594,139.342 -48.578,139.303 -47.102,140.975 -49.225,144.998 -49.729,146.957 -47.879,147.162 -45.732,147.773 
		-46.305,151.027 -44.021,151.742 -44.082,155.576 -48.05,160.125 -53.75,163.836 -61.473,166.221 -62.293,159.518 -65.848,156.912 
		-67.821,153.775 -72.582,151.721 -76.104,150.947 	"/>
	<polygon fill="#FFE1B0" points="-76.971,152.033 -71.053,152.143 -66.979,155.631 -65.537,157.264 -62.166,162.088 
		-61.163,166.068 -63.472,167.703 -67.927,168.59 -71.146,167.34 -75.568,162.092 -78.623,158.262 -77.906,153.529 	"/>
	<path fill="#2D2322" d="M-68.153,136.133c-3.603,3.881-5.786,9.287-8.632,13.709c-1.367,2.123-3.813,4.904-3.129,7.682
		c0.74,3.01,2.998,4.469,4.924,6.689c0.886,1.023,2.361-0.465,1.48-1.48c-1.831-2.113-5.044-3.941-4.209-7.205
		c0.672-2.629,3.187-5.283,4.6-7.574c2.091-3.389,3.715-7.396,6.446-10.34C-65.755,136.625-67.232,135.141-68.153,136.133
		L-68.153,136.133z"/>
	<path fill="#2D2322" d="M-47.54,159.059c-3.105,2.244-7.011,3.377-10.49,4.904c-2.753,1.209-5.394,2.779-8.225,3.787
		c-3.502,1.246-5.361-2.916-7.255-5.018c-0.905-1.006-2.382,0.48-1.48,1.48c1.685,1.871,2.854,4.432,5.36,5.387
		c2.866,1.094,5.36-0.344,7.92-1.605c4.878-2.402,10.789-3.922,15.227-7.127C-45.399,160.084-46.443,158.266-47.54,159.059
		L-47.54,159.059z"/>
	<path fill="#2D2322" d="M-66.027,135.664c1.034,1.715,2.502,3.154,3.704,4.752c1.23,1.635,0.945,2.32-0.595,3.568
		c-1.051,0.85,0.441,2.322,1.48,1.48c1.35-1.092,2.452-2.326,1.997-4.156c-0.641-2.58-3.454-4.506-4.778-6.701
		C-64.915,133.451-66.727,134.504-66.027,135.664L-66.027,135.664z"/>
	<g>
		<path fill="#FFFFFF" d="M-55.593,125.863c-1.696-1.451-1.933-3.311-1.981-4.969c-0.404-3.186,2.055-5.217,3.87-7.814
			c0.249,5.736-0.446,5.467,3.104,10.127"/>
		<path fill="#2D2322" d="M-54.853,125.123c-1.767-1.742-2.224-4.693-1.213-6.961c0.751-1.684,2.189-3.072,3.266-4.555
			c-0.65-0.176-1.301-0.352-1.951-0.527c0.07,1.852-0.019,3.738,0.311,5.568c0.346,1.918,1.804,3.59,2.937,5.086
			c0.804,1.064,2.624,0.021,1.809-1.057c-0.987-1.307-2.137-2.648-2.639-4.234c-0.52-1.641-0.258-3.67-0.323-5.363
			c-0.041-1.098-1.351-1.355-1.951-0.529c-1.507,2.074-3.816,4.227-4.009,6.949c-0.189,2.674,0.337,5.184,2.284,7.104
			C-55.371,127.553-53.89,126.072-54.853,125.123L-54.853,125.123z"/>
	</g>
	<g>
		<path fill="#E58B4A" d="M-58.25,126.227c0.35-2.01-1.486-7.619-5.354-7.182c-1.145,2.715-3.492,9.043-1.746,12.463"/>
		<path fill="#2D2322" d="M-57.037,126.227c0.428-3.789-2.445-8.566-6.566-8.395c-0.596,0.025-0.951,0.365-1.17,0.891
			c-1.687,4.057-3.495,9.121-1.623,13.396c0.626,1.43,2.715,0.195,2.094-1.225c-1.529-3.494,0.508-8.254,1.869-11.527
			c-0.391,0.297-0.78,0.594-1.17,0.891c2.82-0.117,4.419,3.51,4.141,5.969C-59.639,127.779-57.211,127.764-57.037,126.227
			L-57.037,126.227z"/>
	</g>
	<path fill="#2D2322" d="M-44.264,157.164c-2.112-1.662-3.554-4.162-5.909-5.531c-1.783-1.037-3.458,0.205-4.725,1.428
		c-0.974,0.938,0.509,2.418,1.48,1.48c1.199-1.156,1.833-1.539,3.159-0.391c1.604,1.393,2.843,3.182,4.514,4.494
		C-44.695,159.469-43.202,157.998-44.264,157.164L-44.264,157.164z"/>
	<g>
		<path fill="#FFFFFF" d="M-34.629,149.59c1.232,1.859,3.047,2.324,4.688,2.574c3.11,0.795,5.429-1.395,8.229-2.879
			c-5.66-0.951-5.479-0.23-9.666-4.326"/>
		<path fill="#2D2322" d="M-35.533,150.117c1.546,2.01,3.778,3.139,6.354,3.232c3.088,0.115,5.414-1.727,7.996-3.16
			c0.739-0.41,0.668-1.764-0.25-1.914c-1.616-0.264-3.272-0.408-4.862-0.813c-1.747-0.443-3.103-2.041-4.342-3.244
			c-0.969-0.941-2.451,0.539-1.48,1.48c1.311,1.273,2.64,2.666,4.324,3.439c1.768,0.811,3.912,0.85,5.804,1.156
			c-0.083-0.637-0.167-1.275-0.25-1.914c-1.682,0.934-3.254,2.084-5.086,2.711c-2.086,0.713-5.105-0.35-6.399-2.031
			C-34.536,148.006-36.357,149.047-35.533,150.117L-35.533,150.117z"/>
	</g>
	<g>
		<path fill="#E58B4A" d="M-35.315,152.18c2.038-0.098,7.378,2.412,6.466,6.195c-2.835,0.805-9.402,2.355-12.581,0.201"/>
		<path fill="#2D2322" d="M-35.315,153.393c2.271,0.031,5.723,2.051,5.296,4.66c0.283-0.281,0.565-0.564,0.848-0.848
			c-3.491,0.971-8.305,2.309-11.646,0.324c-1.349-0.801-2.568,1.297-1.225,2.094c3.966,2.355,9.354,1.078,13.516-0.078
			c0.374-0.104,0.781-0.441,0.848-0.848c0.695-4.256-3.603-7.674-7.636-7.73C-36.881,150.945-36.878,153.371-35.315,153.393
			L-35.315,153.393z"/>
	</g>
	<path fill="#2D2322" d="M-75.917,152.424c2.698-1.348,8.057,1.182,8.263,4.297c0.088,1.34,2.184,1.35,2.094,0
		c-0.315-4.789-7.237-8.191-11.413-6.105C-78.183,151.219-77.121,153.025-75.917,152.424L-75.917,152.424z"/>
	<path fill="#2D2322" d="M-73.474,153.617c-1.37,0.863-1.311,2.619-0.956,4.014c0.333,1.309,2.353,0.752,2.02-0.557
		c-0.094-0.367-0.146-0.713-0.147-1.094c-0.002-0.26,0.061-0.504,0.141-0.555C-71.277,154.707-72.328,152.895-73.474,153.617
		L-73.474,153.617z"/>
	<path fill="#2D2322" d="M-61.754,167.654c2.48-3.744-0.026-11.064-4.575-11.943c-1.319-0.256-1.882,1.764-0.557,2.02
		c3.243,0.627,5.092,6.197,3.323,8.867C-64.311,167.727-62.496,168.773-61.754,167.654L-61.754,167.654z"/>
	<path fill="#2D2322" d="M-65.947,162.541c-0.36,0.436-1.325,0.057-1.847-0.148c-0.532-0.209-1.148,0.225-1.288,0.732
		c-0.164,0.594,0.2,1.08,0.731,1.287c1.208,0.475,2.946,0.746,3.884-0.391c0.363-0.439,0.433-1.049,0-1.48
		C-64.841,162.166-65.584,162.1-65.947,162.541L-65.947,162.541z"/>
	<g>
		<path fill="#E58B4A" d="M-46.941,139.344c-2.895-0.178-5.877,0.088-8.652,2.4l-0.15-0.008c0.018-0.301,0,0-0.012,0.148l0.057-0.9
			c0.195-3.148,2.111-3.707,4.205-4.707l-0.68,0.033c-3.309-0.053-6.082,0.98-9.139,1.693l0.647-0.713
			c0.825-1.152,1.991-1.758,3.177-2.664c-4.137-1.309-10.322,2.6-13.398,4.895c1.67-7.576,11.176-11.58,17.229-14.516
			c4.887-2.334,9.071-0.645,11.893,3.668c0.834,1.107,3.104,3.354,3.104,3.354l0.563,0.639c0,0,1.389,1.891,2.385,2.855
			c3.932,3.328,5.095,7.691,2.178,12.254c-3.66,5.643-8.805,14.582-16.529,15.311c2.656-2.771,7.297-8.432,6.506-12.695
			c-1.043,1.064-1.788,2.148-3.033,2.824l-0.787,0.553c1.084-2.943,2.449-5.568,2.805-8.859l0.115-0.67
			c-1.248,1.955-2.041,3.789-5.188,3.594l-0.901-0.055c0.15,0.008,0.452,0.025,0.15,0.008l0.011-0.15
			C-47.752,145.166-47.125,142.316-46.941,139.344L-46.941,139.344z"/>
		<path fill="#2D2322" d="M-46.941,138.131c-1.593-0.076-3.128,0.006-4.693,0.311c-0.593,0.115-1.185,0.324-1.737,0.566
			c-0.369,0.16-2.255,1.521-2.372,1.516c0.404,0.404,0.809,0.809,1.213,1.213c0.002-0.031,0.004-0.063,0.005-0.094
			c0.086-1.568-2.318-1.549-2.426,0c-0.005,0.08-0.011,0.162-0.017,0.242c0.809,0,1.617,0,2.426,0
			c0.171-2.715,1.388-3.498,3.661-4.561c1.099-0.514,0.556-2.318-0.612-2.26c-3.53,0.178-6.713,0.936-10.141,1.77
			c0.394,0.676,0.786,1.352,1.18,2.027c1.104-1.215,2.245-2.215,3.579-3.188c0.801-0.582,0.812-1.936-0.29-2.217
			c-5.088-1.295-10.417,2.139-14.333,5.018c0.594,0.455,1.188,0.912,1.782,1.369c1.639-6.523,8.497-9.842,14.056-12.535
			c3.275-1.588,6.375-3.082,9.849-1.092c2.471,1.416,4.205,4.58,6.229,6.604c1.462,1.463,2.683,3.166,4.159,4.643
			c3.52,3.52,2.246,7.5-0.106,11.172c-3.397,5.305-7.653,12.381-14.535,13.238c0.286,0.689,0.572,1.379,0.857,2.07
			c3.294-3.484,7.516-8.396,6.861-13.553c-0.122-0.965-1.27-1.715-2.07-0.857c-1.125,1.203-2.226,2.238-3.575,3.188
			c0.594,0.457,1.188,0.914,1.782,1.369c1.209-3.189,2.339-6.156,2.92-9.529c0.228-1.324-1.453-2.152-2.217-0.934
			c-1.364,2.174-2.361,3.1-5.042,2.938c0,0.809,0,1.617,0,2.426c0.082,0.004,0.163,0.01,0.245,0.014c0-0.809,0-1.617,0-2.426
			c-0.032-0.002-0.063-0.004-0.095-0.006c0.404,0.404,0.809,0.809,1.213,1.213c-0.026,0.363,0.855-0.596,1.003-0.803
			c0.521-0.729,0.988-1.459,1.327-2.291c0.704-1.732,0.987-3.492,1.128-5.348c0.118-1.561-2.309-1.549-2.426,0
			c-0.137,1.809-0.445,3.461-1.257,5.092c-0.591,1.189-2.104,1.99-2.201,3.35c-0.049,0.688,0.59,1.178,1.213,1.213
			c0.031,0.002,0.063,0.004,0.095,0.006c1.563,0.092,1.555-2.334,0-2.426c-0.082-0.004-0.163-0.01-0.245-0.014
			c-1.564-0.092-1.554,2.33,0,2.426c3.642,0.221,5.277-1.174,7.136-4.139c-0.738-0.313-1.478-0.623-2.217-0.936
			c-0.581,3.373-1.711,6.34-2.92,9.529c-0.369,0.977,0.938,1.963,1.782,1.369c1.535-1.08,2.775-2.188,4.065-3.566
			c-0.689-0.287-1.38-0.572-2.07-0.857c0.572,4.502-3.277,8.799-6.15,11.838c-0.652,0.689-0.263,2.209,0.857,2.07
			c7.945-0.99,12.651-8.234,16.63-14.439c2.126-3.314,3.772-7.021,1.922-10.893c-1.407-2.941-4.139-5.355-6.29-7.797
			c-2.097-2.383-4.15-5.266-6.784-7.047c-3.378-2.285-7.311-1.301-10.691,0.32c-6.634,3.182-14.812,6.934-16.776,14.756
			c-0.236,0.941,0.874,2.037,1.782,1.369c3.315-2.438,8.127-5.877,12.464-4.771c-0.097-0.738-0.193-1.479-0.29-2.217
			c-1.525,1.111-2.804,2.174-4.069,3.566c-0.816,0.898-0.025,2.32,1.18,2.027c3.203-0.779,6.189-1.518,9.496-1.684
			c-0.204-0.754-0.408-1.508-0.612-2.26c-3.214,1.502-4.634,3.023-4.862,6.654c-0.099,1.566,2.318,1.551,2.426,0
			c0.006-0.08,0.012-0.162,0.017-0.242c-0.809,0-1.617,0-2.426,0c-0.001,0.031-0.003,0.063-0.005,0.094
			c-0.038,0.688,0.582,1.176,1.213,1.213c1.021,0.059,2.015-1.068,2.878-1.533c1.786-0.959,3.961-0.953,5.925-0.859
			C-45.377,140.631-45.384,138.205-46.941,138.131z"/>
	</g>
</g>
</svg>
